M48
; DRILL file {KiCad 8.0.7} date 2025-03-08T14:15:19+0530
; FORMAT={-:-/ absolute / inch / decimal}
; #@! TF.CreationDate,2025-03-08T14:15:19+05:30
; #@! TF.GenerationSoftware,Kicad,Pcbnew,8.0.7
; #@! TF.FileFunction,Plated,1,2,PTH
FMAT,2
INCH
; #@! TA.AperFunction,Plated,PTH,ViaDrill
T1C0.0118
; #@! TA.AperFunction,Plated,PTH,ComponentDrill
T2C0.0315
; #@! TA.AperFunction,Plated,PTH,ComponentDrill
T3C0.0394
; #@! TA.AperFunction,Plated,PTH,ComponentDrill
T4C0.0402
; #@! TA.AperFunction,Plated,PTH,ComponentDrill
T5C0.0543
%
G90
G05
T1
X2.815Y-3.0118
X2.8543Y-2.6378
X3.2283Y-2.0276
X4.252Y-3.2283
X4.4488Y-2.2047
T2
X2.4016Y-2.5984
X2.4016Y-2.6969
X2.4091Y-2.8385
X2.7091Y-2.8385
T3
X2.0276Y-3.2953
X2.0276Y-3.3953
X2.0276Y-3.4953
X2.0276Y-3.5953
X2.1447Y-4.0638
X2.1447Y-4.1638
X2.1447Y-4.2638
X2.1447Y-4.3638
X2.2844Y-3.2953
X2.2844Y-3.3953
X2.2844Y-3.4953
X2.2844Y-3.5953
X2.3406Y-4.074
X2.3406Y-4.174
X2.3406Y-4.274
X2.3406Y-4.374
X2.5384Y-4.0622
X2.5384Y-4.1622
X2.5384Y-4.2622
X2.5384Y-4.3622
X2.6969Y-2.0826
X2.6969Y-2.1826
X2.6969Y-2.2826
X2.6969Y-2.3826
X2.6969Y-2.4826
X2.6969Y-2.5826
X2.7165Y-3.263
X2.7165Y-3.363
X2.7165Y-3.463
X2.7165Y-3.563
X2.7352Y-4.0654
X2.7352Y-4.1654
X2.7352Y-4.2654
X2.7352Y-4.3654
X3.9173Y-1.4764
X3.9173Y-1.5764
X3.9173Y-1.6764
X4.2197Y-4.0136
X4.2197Y-4.1136
X4.2197Y-4.2136
X4.2717Y-1.4535
X4.2717Y-1.5535
X4.2717Y-1.6535
X4.2866Y-3.0906
X4.2866Y-3.5443
X4.3667Y-2.6978
X4.386Y-3.8789
X4.3866Y-3.0906
X4.3866Y-3.5443
X4.4667Y-2.6978
X4.486Y-3.8789
X4.4866Y-3.0906
X4.4866Y-3.5443
X4.5866Y-3.0906
X4.5866Y-3.5443
X4.9978Y-3.1102
X5.0181Y-2.5984
X5.0181Y-2.9134
X5.0963Y-2.2835
X5.0978Y-2.1063
X5.0978Y-3.1102
X5.1181Y-2.5984
X5.1181Y-2.9134
X5.1963Y-2.2835
X5.1978Y-2.1063
X5.1978Y-3.1102
X5.2181Y-2.5984
X5.2181Y-2.9134
T4
X2.974Y-2.2199
X2.974Y-2.3199
X2.974Y-2.4199
X2.974Y-2.5199
X2.974Y-2.6199
X2.974Y-2.7199
X2.974Y-2.8199
X2.974Y-2.9199
X2.974Y-3.0199
X2.974Y-3.1199
X2.974Y-3.2199
X2.974Y-3.3199
X2.974Y-3.4199
X2.974Y-3.5199
X2.974Y-3.6199
X2.974Y-3.7199
X2.974Y-3.8199
X2.974Y-3.9199
X2.974Y-4.0199
X2.974Y-4.1199
X2.974Y-4.2199
X2.974Y-4.3199
X3.874Y-2.2199
X3.874Y-2.3199
X3.874Y-2.4199
X3.874Y-2.5199
X3.874Y-2.6199
X3.874Y-2.7199
X3.874Y-2.8199
X3.874Y-2.9199
X3.874Y-3.0199
X3.874Y-3.1199
X3.874Y-3.2199
X3.874Y-3.3199
X3.874Y-3.4199
X3.874Y-3.5199
X3.874Y-3.6199
X3.874Y-3.7199
X3.874Y-3.8199
X3.874Y-3.9199
X3.874Y-4.0199
X3.874Y-4.1199
X3.874Y-4.2199
X3.874Y-4.3199
T5
G00X4.447Y-2.0287
M15
G01X4.4069Y-2.0287
M16
G05
G00X4.447Y-4.8988
M15
G01X4.4069Y-4.8988
M16
G05
M30
